Title...........Coraline
Year............2009
Cast (voices)...Dakota Fanning, Teri Hatcher, Ian McShane, Keith David
Director........Henry Selick
Music...........Bruno Coulais (The Chorus/Les choristes 2004)


Language........English
subtitle........English, Hebrew, Swedish, Danish, Finnish, French, Spanish,
                Italian, Dutch, Portugeses, Greek, Turkish

Include.........sample


General:
Format                           : AVI
Format/Info                      : Audio Video Interleave
File size                        : 1.64 GiB
Duration                         : 1h 40mn
Overall bit rate                 : 2 338 Kbps

Video:
ID                               : 0
Format                           : MPEG-4 Visual
Codec ID                         : XVID
Codec ID/Hint                    : XviD
Duration                         : 1h 40mn
Bit rate                         : 1 880 Kbps
Width                            : 720 pixels
Height                           : 400 pixels
Display aspect ratio             : 16:9
Frame rate                       : 23.976 fps
Scan type                        : Progressive
Bits/(Pixel*Frame)               : 0.272
Stream size                      : 1.32 GiB (80%)
Writing library                  : XviD 1.2.1 (UTC 2008-12-04)

Audio:
ID                               : 1
Format                           : AC-3
Format/Info                      : Audio Coding 3
Duration                         : 1h 40mn
Bit rate                         : 448 Kbps
Channel(s)                       : 6 channels
Channel positions                : Front: L C R, Side: L R, LFE
Sampling rate                    : 48.0 KHz
Stream size                      : 322 MiB (19%)

